<svg xmlns="http://www.w3.org/2000/svg" xmlns:xlink="http://www.w3.org/1999/xlink" width="470" zoomAndPan="magnify" viewBox="0 0 352.5 74.999997" height="100" preserveAspectRatio="xMidYMid meet" version="1.0"><defs><g/></defs><g fill="#1d6638" fill-opacity="1"><g transform="translate(8.358665, 54.261033)"><g><path d="M 54.15625 6.96875 C 54.226562 8.769531 53.734375 10.441406 52.671875 11.984375 C 51.617188 13.535156 50.242188 14.65625 48.546875 15.34375 C 46.628906 16.070312 44.800781 16.203125 43.0625 15.734375 C 41.332031 15.265625 39.773438 14.285156 38.390625 12.796875 C 35.859375 10.054688 34.226562 6.296875 33.5 1.515625 C 33.125 -0.296875 32.988281 -2.535156 33.09375 -5.203125 C 33.195312 -7.867188 33.367188 -10.117188 33.609375 -11.953125 C 33.847656 -13.796875 34.128906 -16.046875 34.453125 -18.703125 C 34.785156 -21.359375 34.988281 -23.601562 35.0625 -25.4375 C 35.09375 -26.6875 35.109375 -27.898438 35.109375 -29.078125 C 35.109375 -30.265625 34.875 -31.460938 34.40625 -32.671875 C 33.945312 -33.890625 33.25 -34.863281 32.3125 -35.59375 C 31.09375 -36.425781 29.953125 -36.613281 28.890625 -36.15625 C 27.835938 -35.707031 27.015625 -34.84375 26.421875 -33.5625 C 26.046875 -32.65625 25.703125 -31.234375 25.390625 -29.296875 C 25.210938 -28.015625 24.984375 -26.140625 24.703125 -23.671875 C 24.179688 -18.710938 24.128906 -14.082031 24.546875 -9.78125 C 24.617188 -9.15625 24.429688 -8.632812 23.984375 -8.21875 C 23.535156 -7.800781 23.03125 -7.550781 22.46875 -7.46875 C 21.914062 -7.382812 21.367188 -7.488281 20.828125 -7.78125 C 20.296875 -8.070312 19.976562 -8.53125 19.875 -9.15625 C 19.726562 -9.957031 19.59375 -10.789062 19.46875 -11.65625 C 19.351562 -12.519531 19.257812 -13.332031 19.1875 -14.09375 C 19.125 -14.863281 19.046875 -15.707031 18.953125 -16.625 C 18.867188 -17.539062 18.800781 -18.351562 18.75 -19.0625 C 18.695312 -19.78125 18.625 -20.632812 18.53125 -21.625 C 18.445312 -22.613281 18.375 -23.4375 18.3125 -24.09375 C 18.132812 -26.34375 17.875 -28.421875 17.53125 -30.328125 C 17.5 -30.429688 17.457031 -30.679688 17.40625 -31.078125 C 17.351562 -31.484375 17.304688 -31.769531 17.265625 -31.9375 C 17.234375 -32.113281 17.171875 -32.375 17.078125 -32.71875 C 16.992188 -33.070312 16.914062 -33.359375 16.84375 -33.578125 C 16.78125 -33.804688 16.703125 -34.054688 16.609375 -34.328125 C 16.523438 -34.609375 16.421875 -34.867188 16.296875 -35.109375 C 16.179688 -35.359375 16.035156 -35.585938 15.859375 -35.796875 C 15.441406 -36.390625 14.945312 -36.738281 14.375 -36.84375 C 13.800781 -36.945312 13.265625 -36.859375 12.765625 -36.578125 C 12.265625 -36.296875 11.804688 -35.878906 11.390625 -35.328125 C 10.972656 -34.734375 10.625 -33.992188 10.34375 -33.109375 C 10.070312 -32.234375 9.890625 -31.539062 9.796875 -31.03125 C 9.710938 -30.53125 9.582031 -29.726562 9.40625 -28.625 C 9.300781 -28 9.1875 -27.039062 9.0625 -25.75 C 8.945312 -24.46875 8.835938 -23.515625 8.734375 -22.890625 C 8.867188 -19.835938 8.957031 -16.679688 9 -13.421875 C 9 -12.660156 9.003906 -11.535156 9.015625 -10.046875 C 9.035156 -8.554688 9.050781 -7.34375 9.0625 -6.40625 C 9.082031 -5.46875 9.082031 -4.351562 9.0625 -3.0625 C 9.050781 -1.78125 9.007812 -0.601562 8.9375 0.46875 C 8.90625 0.851562 8.800781 1.207031 8.625 1.53125 C 8.457031 1.863281 8.222656 2.132812 7.921875 2.34375 C 7.628906 2.550781 7.296875 2.671875 6.921875 2.703125 C 6.398438 2.804688 5.867188 2.691406 5.328125 2.359375 C 4.785156 2.035156 4.484375 1.613281 4.421875 1.09375 C 4.066406 -1.195312 3.820312 -3.535156 3.6875 -5.921875 C 3.550781 -8.316406 3.460938 -11.289062 3.421875 -14.84375 C 3.390625 -18.40625 3.359375 -20.757812 3.328125 -21.90625 C 3.148438 -26.726562 2.992188 -30.523438 2.859375 -33.296875 C 2.816406 -33.578125 2.785156 -33.957031 2.765625 -34.4375 C 2.753906 -34.925781 2.75 -35.332031 2.75 -35.65625 C 2.75 -35.988281 2.722656 -36.363281 2.671875 -36.78125 C 2.617188 -37.195312 2.539062 -37.582031 2.4375 -37.9375 C 2.40625 -38 2.351562 -38.101562 2.28125 -38.25 C 2.25 -38.351562 2.234375 -38.421875 2.234375 -38.453125 C 2.160156 -38.523438 2.109375 -38.578125 2.078125 -38.609375 C 2.046875 -38.609375 2.019531 -38.609375 2 -38.609375 C 1.976562 -38.609375 1.96875 -38.609375 1.96875 -38.609375 C 1.96875 -38.609375 1.941406 -38.609375 1.890625 -38.609375 C 1.835938 -38.609375 1.773438 -38.609375 1.703125 -38.609375 C 1.640625 -38.609375 1.570312 -38.609375 1.5 -38.609375 C 1.539062 -38.296875 1.457031 -38.039062 1.25 -37.84375 C 1.039062 -37.65625 0.804688 -37.546875 0.546875 -37.515625 C 0.285156 -37.484375 0.0234375 -37.535156 -0.234375 -37.671875 C -0.492188 -37.804688 -0.660156 -38.015625 -0.734375 -38.296875 C -0.835938 -38.785156 -0.828125 -39.257812 -0.703125 -39.71875 C -0.585938 -40.1875 -0.375 -40.59375 -0.0625 -40.9375 C 0.25 -41.289062 0.632812 -41.570312 1.09375 -41.78125 C 1.988281 -42.164062 2.851562 -42.21875 3.6875 -41.9375 C 4.519531 -41.65625 5.25 -41.117188 5.875 -40.328125 C 6.21875 -39.835938 6.519531 -39.210938 6.78125 -38.453125 C 7.039062 -37.691406 7.207031 -37.117188 7.28125 -36.734375 C 7.351562 -36.347656 7.457031 -35.65625 7.59375 -34.65625 C 7.59375 -34.613281 7.597656 -34.578125 7.609375 -34.546875 C 7.628906 -34.515625 7.640625 -34.5 7.640625 -34.5 C 8.234375 -36.226562 8.976562 -37.648438 9.875 -38.765625 C 11.0625 -40.179688 12.582031 -40.898438 14.4375 -40.921875 C 16.289062 -40.941406 17.84375 -40.273438 19.09375 -38.921875 C 20.300781 -37.640625 21.253906 -35.523438 21.953125 -32.578125 C 22.265625 -33.679688 22.628906 -34.6875 23.046875 -35.59375 C 23.734375 -37.15625 24.726562 -38.4375 26.03125 -39.4375 C 27.332031 -40.445312 28.800781 -40.96875 30.4375 -41 C 32.269531 -41.070312 34.007812 -40.5 35.65625 -39.28125 C 37.3125 -38.070312 38.535156 -36.582031 39.328125 -34.8125 C 39.921875 -33.5625 40.347656 -32.171875 40.609375 -30.640625 C 40.867188 -29.117188 40.988281 -27.660156 40.96875 -26.265625 C 40.945312 -24.878906 40.90625 -23.425781 40.84375 -21.90625 C 40.738281 -20.238281 40.53125 -17.882812 40.21875 -14.84375 C 39.90625 -11.8125 39.710938 -9.828125 39.640625 -8.890625 C 39.265625 -4.109375 39.332031 -0.273438 39.84375 2.609375 C 40.644531 7.003906 42.019531 9.863281 43.96875 11.1875 C 45.101562 11.988281 46.382812 12.128906 47.8125 11.609375 C 49.195312 11.117188 50.148438 10.300781 50.671875 9.15625 C 51.191406 8.007812 51.207031 6.914062 50.71875 5.875 C 50.195312 4.832031 49.59375 4.398438 48.90625 4.578125 C 48.3125 4.753906 47.804688 4.648438 47.390625 4.265625 C 46.972656 3.878906 46.773438 3.410156 46.796875 2.859375 C 46.816406 2.304688 47.085938 1.875 47.609375 1.5625 C 48.441406 1.039062 49.304688 0.835938 50.203125 0.953125 C 51.109375 1.078125 51.890625 1.503906 52.546875 2.234375 C 53.515625 3.273438 54.050781 4.851562 54.15625 6.96875 Z M 54.15625 6.96875 "/></g></g></g><g fill="#1d6638" fill-opacity="1"><g transform="translate(53.356048, 54.261033)"><g><path d="M 19.09375 -3.328125 C 19.925781 2.390625 19.695312 7.070312 18.40625 10.71875 C 17.539062 13.175781 16.207031 15.03125 14.40625 16.28125 C 13.195312 17.15625 11.773438 17.710938 10.140625 17.953125 C 8.515625 18.191406 6.988281 18.070312 5.5625 17.59375 C 4.414062 17.207031 3.390625 16.5625 2.484375 15.65625 C 1.585938 14.757812 0.90625 13.742188 0.4375 12.609375 C -0.03125 11.484375 -0.238281 10.28125 -0.1875 9 C -0.132812 7.71875 0.238281 6.554688 0.9375 5.515625 C 1.769531 4.234375 2.894531 3.410156 4.3125 3.046875 C 5.738281 2.679688 7.054688 3.019531 8.265625 4.0625 C 8.890625 4.6875 9.257812 5.488281 9.375 6.46875 C 9.5 7.457031 9.289062 8.332031 8.75 9.09375 C 8.21875 9.863281 7.429688 10.210938 6.390625 10.140625 C 5.703125 10.078125 5.320312 9.722656 5.25 9.078125 C 5.175781 8.429688 5.453125 7.972656 6.078125 7.703125 C 6.640625 7.492188 6.804688 7.15625 6.578125 6.6875 C 6.347656 6.21875 5.957031 6.019531 5.40625 6.09375 C 4.539062 6.195312 3.898438 6.75 3.484375 7.75 C 3.171875 8.476562 3.09375 9.238281 3.25 10.03125 C 3.40625 10.832031 3.742188 11.546875 4.265625 12.171875 C 5.335938 13.554688 6.863281 14.023438 8.84375 13.578125 C 9.945312 13.367188 10.847656 13.023438 11.546875 12.546875 C 11.722656 12.398438 11.8125 12.328125 11.8125 12.328125 C 11.976562 12.160156 12.113281 12.023438 12.21875 11.921875 C 12.289062 11.847656 12.378906 11.757812 12.484375 11.65625 C 12.484375 11.65625 12.5 11.628906 12.53125 11.578125 C 12.570312 11.523438 12.59375 11.5 12.59375 11.5 C 13.976562 9.414062 14.6875 6.347656 14.71875 2.296875 C 14.71875 0.691406 14.613281 -0.941406 14.40625 -2.609375 C 14.40625 -2.703125 14.40625 -2.769531 14.40625 -2.8125 C 14.332031 -3.125 14.28125 -3.453125 14.25 -3.796875 C 14.144531 -4.421875 14.039062 -5.082031 13.9375 -5.78125 C 13.726562 -7.332031 13.554688 -8.71875 13.421875 -9.9375 C 13.273438 -11.15625 13.1875 -11.953125 13.15625 -12.328125 C 11.84375 -10.765625 10.265625 -9.953125 8.421875 -9.890625 C 7.378906 -9.847656 6.375 -10.101562 5.40625 -10.65625 C 4.4375 -11.21875 3.644531 -11.945312 3.03125 -12.84375 C 2.425781 -13.75 2.019531 -14.722656 1.8125 -15.765625 C 1.570312 -17.046875 1.488281 -18.742188 1.5625 -20.859375 C 1.625 -23.671875 1.847656 -25.664062 2.234375 -26.84375 C 2.515625 -27.71875 3.117188 -28.15625 4.046875 -28.15625 C 4.984375 -28.15625 5.578125 -27.71875 5.828125 -26.84375 C 5.992188 -26.1875 6.117188 -25.46875 6.203125 -24.6875 C 6.296875 -23.90625 6.34375 -23.175781 6.34375 -22.5 C 6.34375 -21.820312 6.34375 -21.101562 6.34375 -20.34375 C 6.34375 -19.582031 6.359375 -18.851562 6.390625 -18.15625 C 6.390625 -17.78125 6.414062 -17.398438 6.46875 -17.015625 C 6.519531 -16.628906 6.613281 -16.210938 6.75 -15.765625 C 6.894531 -15.316406 7.113281 -14.953125 7.40625 -14.671875 C 7.707031 -14.390625 8.046875 -14.269531 8.421875 -14.3125 C 8.910156 -14.34375 9.335938 -14.503906 9.703125 -14.796875 C 10.066406 -15.097656 10.359375 -15.523438 10.578125 -16.078125 C 10.804688 -16.628906 10.976562 -17.078125 11.09375 -17.421875 C 11.21875 -17.773438 11.332031 -18.226562 11.4375 -18.78125 C 11.851562 -20.476562 12.113281 -21.765625 12.21875 -22.640625 C 12.257812 -22.878906 12.296875 -23.300781 12.328125 -23.90625 C 12.359375 -24.507812 12.410156 -25.019531 12.484375 -25.4375 C 12.554688 -25.851562 12.675781 -26.238281 12.84375 -26.59375 C 12.882812 -26.65625 12.921875 -26.722656 12.953125 -26.796875 C 12.984375 -26.828125 13 -26.867188 13 -26.921875 C 13 -26.972656 13 -27.019531 13 -27.0625 C 13.070312 -27.375 13.210938 -27.625 13.421875 -27.8125 C 13.628906 -28 13.867188 -28.117188 14.140625 -28.171875 C 14.421875 -28.222656 14.695312 -28.222656 14.96875 -28.171875 C 15.25 -28.117188 15.492188 -27.988281 15.703125 -27.78125 C 15.910156 -27.570312 16.050781 -27.332031 16.125 -27.0625 C 16.40625 -25.84375 16.625 -24.566406 16.78125 -23.234375 C 16.9375 -21.898438 17.082031 -20.3125 17.21875 -18.46875 C 17.351562 -16.632812 17.457031 -15.351562 17.53125 -14.625 C 17.707031 -13.03125 18.226562 -9.265625 19.09375 -3.328125 Z M 19.09375 -3.328125 "/></g></g></g><g fill="#1d6638" fill-opacity="1"><g transform="translate(73.383781, 54.261033)"><g/></g></g><g fill="#1d6638" fill-opacity="1"><g transform="translate(85.712549, 54.261033)"><g><path d="M 28.765625 -50.578125 C 29.003906 -51.097656 29.375 -51.425781 29.875 -51.5625 C 30.382812 -51.695312 30.863281 -51.660156 31.3125 -51.453125 C 31.769531 -51.242188 32.132812 -50.90625 32.40625 -50.4375 C 32.6875 -49.96875 32.757812 -49.476562 32.625 -48.96875 C 31.6875 -45.738281 30.226562 -41.15625 28.25 -35.21875 C 26.269531 -29.289062 25.035156 -25.582031 24.546875 -24.09375 C 23.785156 -21.664062 22.675781 -17.921875 21.21875 -12.859375 C 20.875 -11.640625 20.335938 -9.832031 19.609375 -7.4375 C 19.609375 -7.40625 19.546875 -7.171875 19.421875 -6.734375 C 19.304688 -6.304688 19.226562 -6.039062 19.1875 -5.9375 C 19.15625 -5.832031 19.078125 -5.597656 18.953125 -5.234375 C 18.835938 -4.867188 18.734375 -4.609375 18.640625 -4.453125 C 18.554688 -4.296875 18.445312 -4.078125 18.3125 -3.796875 C 18.175781 -3.515625 18.03125 -3.28125 17.875 -3.09375 C 17.71875 -2.90625 17.535156 -2.722656 17.328125 -2.546875 C 16.660156 -1.890625 15.894531 -1.488281 15.03125 -1.34375 C 14.164062 -1.207031 13.316406 -1.316406 12.484375 -1.671875 C 11.304688 -2.191406 10.226562 -3.226562 9.25 -4.78125 C 8.695312 -5.65625 8.171875 -6.734375 7.671875 -8.015625 C 7.171875 -9.296875 6.820312 -10.28125 6.625 -10.96875 C 6.4375 -11.664062 6.117188 -12.832031 5.671875 -14.46875 C 5.179688 -16.34375 4.707031 -18.40625 4.25 -20.65625 C 3.800781 -22.90625 3.34375 -25.296875 2.875 -27.828125 C 2.414062 -30.367188 2.007812 -32.453125 1.65625 -34.078125 C 1.28125 -35.710938 0.847656 -37.082031 0.359375 -38.1875 C -0.296875 -39.75 -1.023438 -40.6875 -1.828125 -41 C -2.410156 -41.28125 -2.960938 -41.164062 -3.484375 -40.65625 C -4.003906 -40.15625 -4.304688 -39.554688 -4.390625 -38.859375 C -4.484375 -38.171875 -4.375 -37.566406 -4.0625 -37.046875 C -3.570312 -36.390625 -3.609375 -35.726562 -4.171875 -35.0625 C -4.691406 -34.4375 -5.242188 -34.367188 -5.828125 -34.859375 C -5.898438 -34.929688 -5.972656 -35 -6.046875 -35.0625 C -6.984375 -36.25 -7.390625 -37.59375 -7.265625 -39.09375 C -7.140625 -40.601562 -6.523438 -41.878906 -5.421875 -42.921875 C -4.023438 -44.140625 -2.441406 -44.632812 -0.671875 -44.40625 C 1.085938 -44.1875 2.578125 -43.398438 3.796875 -42.046875 C 4.628906 -41.109375 5.359375 -40.070312 5.984375 -38.9375 C 6.609375 -37.8125 7.144531 -36.53125 7.59375 -35.09375 C 8.039062 -33.65625 8.382812 -32.441406 8.625 -31.453125 C 8.875 -30.460938 9.171875 -29.066406 9.515625 -27.265625 C 9.859375 -25.460938 10.101562 -24.226562 10.25 -23.5625 C 11.289062 -18.851562 12.257812 -15.160156 13.15625 -12.484375 C 13.394531 -11.753906 13.691406 -10.921875 14.046875 -9.984375 C 14.078125 -10.085938 14.132812 -10.253906 14.21875 -10.484375 C 14.3125 -10.710938 14.375 -10.878906 14.40625 -10.984375 C 15.34375 -13.515625 16.035156 -15.351562 16.484375 -16.5 C 17.734375 -19.925781 19.070312 -23.757812 20.5 -28 C 20.632812 -28.414062 20.84375 -29.035156 21.125 -29.859375 C 24.238281 -39.191406 26.785156 -46.097656 28.765625 -50.578125 Z M 15.390625 -7.4375 Z M 15.390625 -7.4375 "/></g></g></g><g fill="#1d6638" fill-opacity="1"><g transform="translate(115.468044, 54.261033)"><g><path d="M 18.671875 -20.1875 C 19.023438 -20.632812 19.476562 -20.691406 20.03125 -20.359375 C 20.582031 -20.035156 20.753906 -19.613281 20.546875 -19.09375 C 19.785156 -17.257812 18.625 -15.691406 17.0625 -14.390625 C 15.5 -13.085938 13.765625 -12.265625 11.859375 -11.921875 C 9.878906 -11.609375 8.285156 -11.660156 7.078125 -12.078125 C 5.203125 -12.796875 3.796875 -14.039062 2.859375 -15.8125 C 2.234375 -17.0625 1.859375 -18.414062 1.734375 -19.875 C 1.617188 -21.332031 1.8125 -22.769531 2.3125 -24.1875 C 2.8125 -25.613281 3.632812 -26.726562 4.78125 -27.53125 C 6.519531 -28.738281 8.253906 -29.117188 9.984375 -28.671875 C 11.796875 -28.179688 12.679688 -26.84375 12.640625 -24.65625 C 12.640625 -22.925781 12.144531 -21.425781 11.15625 -20.15625 C 10.164062 -18.894531 8.859375 -18.109375 7.234375 -17.796875 C 7.679688 -16.992188 8.3125 -16.5 9.125 -16.3125 C 9.945312 -16.125 10.929688 -16.082031 12.078125 -16.1875 C 13.359375 -16.320312 14.34375 -16.632812 15.03125 -17.125 C 16.84375 -18.40625 18.054688 -19.425781 18.671875 -20.1875 Z M 9 -25.28125 C 8 -24.90625 7.289062 -24.171875 6.875 -23.078125 C 6.457031 -21.984375 6.351562 -20.847656 6.5625 -19.671875 C 8.050781 -20.148438 9.125 -21.015625 9.78125 -22.265625 C 10.226562 -23.066406 10.398438 -23.863281 10.296875 -24.65625 C 10.265625 -25.113281 10.144531 -25.382812 9.9375 -25.46875 C 9.726562 -25.550781 9.414062 -25.488281 9 -25.28125 Z M 9 -25.28125 "/></g></g></g><g fill="#1d6638" fill-opacity="1"><g transform="translate(131.074064, 54.261033)"><g><path d="M 23.5625 -19.40625 C 24.050781 -19.820312 24.53125 -19.800781 25 -19.34375 C 25.46875 -18.894531 25.476562 -18.429688 25.03125 -17.953125 C 24.613281 -17.503906 24.175781 -17.078125 23.71875 -16.671875 C 23.269531 -16.273438 22.71875 -15.847656 22.0625 -15.390625 C 21.40625 -14.941406 20.9375 -14.625 20.65625 -14.4375 C 20.375 -14.25 19.78125 -13.875 18.875 -13.3125 C 17.976562 -12.757812 17.460938 -12.429688 17.328125 -12.328125 C 17.609375 -9.722656 17.800781 -7.503906 17.90625 -5.671875 C 18.113281 -1.679688 17.625 1.382812 16.4375 3.53125 C 15.707031 4.882812 14.679688 5.914062 13.359375 6.625 C 12.046875 7.34375 10.644531 7.582031 9.15625 7.34375 C 7.84375 7.09375 6.785156 6.515625 5.984375 5.609375 C 5.179688 4.710938 4.691406 3.65625 4.515625 2.4375 C 4.347656 1.226562 4.347656 -0.00390625 4.515625 -1.265625 C 4.691406 -2.535156 5.007812 -3.707031 5.46875 -4.78125 C 6.125 -6.207031 7.023438 -7.46875 8.171875 -8.5625 C 9.316406 -9.65625 10.722656 -10.738281 12.390625 -11.8125 C 12.242188 -13.0625 12.140625 -14.132812 12.078125 -15.03125 C 10.859375 -13.75 9.425781 -13.109375 7.78125 -13.109375 C 6.132812 -13.109375 4.664062 -13.820312 3.375 -15.25 C 1.820312 -17.082031 1.234375 -19.109375 1.609375 -21.328125 C 1.960938 -23.066406 2.757812 -24.664062 4 -26.125 C 4.976562 -27.195312 6.125 -27.941406 7.4375 -28.359375 C 8.757812 -28.773438 10.0625 -28.738281 11.34375 -28.25 C 11.34375 -28.289062 11.34375 -28.335938 11.34375 -28.390625 C 11.34375 -28.441406 11.34375 -28.484375 11.34375 -28.515625 C 11.34375 -29.140625 11.617188 -29.625 12.171875 -29.96875 C 12.734375 -30.3125 13.304688 -30.394531 13.890625 -30.21875 C 14.484375 -30.050781 14.847656 -29.640625 14.984375 -28.984375 C 15.640625 -25.722656 16.226562 -21.800781 16.75 -17.21875 C 16.820312 -16.90625 16.890625 -16.445312 16.953125 -15.84375 C 17.023438 -15.238281 17.0625 -14.882812 17.0625 -14.78125 C 19.875 -16.507812 22.039062 -18.050781 23.5625 -19.40625 Z M 11.234375 -19.875 C 11.378906 -20.050781 11.519531 -20.242188 11.65625 -20.453125 C 11.519531 -22.328125 11.429688 -24.113281 11.390625 -25.8125 C 10.523438 -26.082031 9.675781 -25.929688 8.84375 -25.359375 C 8.007812 -24.785156 7.382812 -24.050781 6.96875 -23.15625 C 5.925781 -20.894531 6.03125 -19.226562 7.28125 -18.15625 C 7.90625 -17.632812 8.570312 -17.597656 9.28125 -18.046875 C 10 -18.503906 10.648438 -19.113281 11.234375 -19.875 Z M 12.90625 -1.875 C 13.007812 -3.570312 12.921875 -5.945312 12.640625 -9 C 10.835938 -7.476562 9.503906 -5.914062 8.640625 -4.3125 C 7.804688 -2.820312 7.457031 -1.347656 7.59375 0.109375 C 7.695312 1.078125 7.972656 1.875 8.421875 2.5 C 8.878906 3.125 9.523438 3.242188 10.359375 2.859375 C 11.878906 2.234375 12.726562 0.65625 12.90625 -1.875 Z M 12.90625 -1.875 "/></g></g></g><g fill="#1d6638" fill-opacity="1"><g transform="translate(151.517963, 54.261033)"><g><path d="M 23.5625 -19.40625 C 24.050781 -19.820312 24.53125 -19.800781 25 -19.34375 C 25.46875 -18.894531 25.476562 -18.429688 25.03125 -17.953125 C 24.613281 -17.503906 24.175781 -17.078125 23.71875 -16.671875 C 23.269531 -16.273438 22.71875 -15.847656 22.0625 -15.390625 C 21.40625 -14.941406 20.9375 -14.625 20.65625 -14.4375 C 20.375 -14.25 19.78125 -13.875 18.875 -13.3125 C 17.976562 -12.757812 17.460938 -12.429688 17.328125 -12.328125 C 17.609375 -9.722656 17.800781 -7.503906 17.90625 -5.671875 C 18.113281 -1.679688 17.625 1.382812 16.4375 3.53125 C 15.707031 4.882812 14.679688 5.914062 13.359375 6.625 C 12.046875 7.34375 10.644531 7.582031 9.15625 7.34375 C 7.84375 7.09375 6.785156 6.515625 5.984375 5.609375 C 5.179688 4.710938 4.691406 3.65625 4.515625 2.4375 C 4.347656 1.226562 4.347656 -0.00390625 4.515625 -1.265625 C 4.691406 -2.535156 5.007812 -3.707031 5.46875 -4.78125 C 6.125 -6.207031 7.023438 -7.46875 8.171875 -8.5625 C 9.316406 -9.65625 10.722656 -10.738281 12.390625 -11.8125 C 12.242188 -13.0625 12.140625 -14.132812 12.078125 -15.03125 C 10.859375 -13.75 9.425781 -13.109375 7.78125 -13.109375 C 6.132812 -13.109375 4.664062 -13.820312 3.375 -15.25 C 1.820312 -17.082031 1.234375 -19.109375 1.609375 -21.328125 C 1.960938 -23.066406 2.757812 -24.664062 4 -26.125 C 4.976562 -27.195312 6.125 -27.941406 7.4375 -28.359375 C 8.757812 -28.773438 10.0625 -28.738281 11.34375 -28.25 C 11.34375 -28.289062 11.34375 -28.335938 11.34375 -28.390625 C 11.34375 -28.441406 11.34375 -28.484375 11.34375 -28.515625 C 11.34375 -29.140625 11.617188 -29.625 12.171875 -29.96875 C 12.734375 -30.3125 13.304688 -30.394531 13.890625 -30.21875 C 14.484375 -30.050781 14.847656 -29.640625 14.984375 -28.984375 C 15.640625 -25.722656 16.226562 -21.800781 16.75 -17.21875 C 16.820312 -16.90625 16.890625 -16.445312 16.953125 -15.84375 C 17.023438 -15.238281 17.0625 -14.882812 17.0625 -14.78125 C 19.875 -16.507812 22.039062 -18.050781 23.5625 -19.40625 Z M 11.234375 -19.875 C 11.378906 -20.050781 11.519531 -20.242188 11.65625 -20.453125 C 11.519531 -22.328125 11.429688 -24.113281 11.390625 -25.8125 C 10.523438 -26.082031 9.675781 -25.929688 8.84375 -25.359375 C 8.007812 -24.785156 7.382812 -24.050781 6.96875 -23.15625 C 5.925781 -20.894531 6.03125 -19.226562 7.28125 -18.15625 C 7.90625 -17.632812 8.570312 -17.597656 9.28125 -18.046875 C 10 -18.503906 10.648438 -19.113281 11.234375 -19.875 Z M 12.90625 -1.875 C 13.007812 -3.570312 12.921875 -5.945312 12.640625 -9 C 10.835938 -7.476562 9.503906 -5.914062 8.640625 -4.3125 C 7.804688 -2.820312 7.457031 -1.347656 7.59375 0.109375 C 7.695312 1.078125 7.972656 1.875 8.421875 2.5 C 8.878906 3.125 9.523438 3.242188 10.359375 2.859375 C 11.878906 2.234375 12.726562 0.65625 12.90625 -1.875 Z M 12.90625 -1.875 "/></g></g></g><g fill="#1d6638" fill-opacity="1"><g transform="translate(171.961863, 54.261033)"><g><path d="M 13.53125 -19.09375 C 14.007812 -19.539062 14.5 -19.570312 15 -19.1875 C 15.507812 -18.8125 15.625 -18.332031 15.34375 -17.75 C 14.96875 -16.945312 14.523438 -16.195312 14.015625 -15.5 C 13.515625 -14.8125 12.9375 -14.171875 12.28125 -13.578125 C 11.625 -12.992188 10.9375 -12.535156 10.21875 -12.203125 C 9.507812 -11.867188 8.726562 -11.738281 7.875 -11.8125 C 7.03125 -11.882812 6.191406 -12.195312 5.359375 -12.75 C 4.390625 -13.375 3.644531 -14.25 3.125 -15.375 C 2.601562 -16.5 2.359375 -17.671875 2.390625 -18.890625 C 2.429688 -19.648438 2.550781 -20.914062 2.75 -22.6875 C 2.957031 -24.488281 3.1875 -25.753906 3.4375 -26.484375 C 3.644531 -27.078125 4.035156 -27.46875 4.609375 -27.65625 C 5.179688 -27.84375 5.707031 -27.78125 6.1875 -27.46875 C 6.675781 -27.15625 6.921875 -26.671875 6.921875 -26.015625 C 6.992188 -25.046875 6.875 -23.085938 6.5625 -20.140625 C 6.382812 -18.265625 6.609375 -16.894531 7.234375 -16.03125 C 7.617188 -15.570312 8.035156 -15.328125 8.484375 -15.296875 C 8.929688 -15.265625 9.414062 -15.421875 9.9375 -15.765625 C 10.457031 -16.109375 10.90625 -16.453125 11.28125 -16.796875 C 11.664062 -17.148438 12.097656 -17.59375 12.578125 -18.125 C 13.066406 -18.664062 13.382812 -18.988281 13.53125 -19.09375 Z M 7.546875 -31.109375 C 7.203125 -30.421875 6.613281 -30.078125 5.78125 -30.078125 C 4.945312 -30.078125 4.363281 -30.421875 4.03125 -31.109375 C 3.695312 -31.804688 3.695312 -32.492188 4.03125 -33.171875 C 4.363281 -33.847656 4.945312 -34.1875 5.78125 -34.1875 C 6.613281 -34.1875 7.203125 -33.847656 7.546875 -33.171875 C 7.890625 -32.492188 7.890625 -31.804688 7.546875 -31.109375 Z M 7.546875 -31.109375 "/></g></g></g><g fill="#1d6638" fill-opacity="1"><g transform="translate(182.365886, 54.261033)"><g><path d="M 18.671875 -20.1875 C 19.023438 -20.632812 19.476562 -20.691406 20.03125 -20.359375 C 20.582031 -20.035156 20.753906 -19.613281 20.546875 -19.09375 C 19.785156 -17.257812 18.625 -15.691406 17.0625 -14.390625 C 15.5 -13.085938 13.765625 -12.265625 11.859375 -11.921875 C 9.878906 -11.609375 8.285156 -11.660156 7.078125 -12.078125 C 5.203125 -12.796875 3.796875 -14.039062 2.859375 -15.8125 C 2.234375 -17.0625 1.859375 -18.414062 1.734375 -19.875 C 1.617188 -21.332031 1.8125 -22.769531 2.3125 -24.1875 C 2.8125 -25.613281 3.632812 -26.726562 4.78125 -27.53125 C 6.519531 -28.738281 8.253906 -29.117188 9.984375 -28.671875 C 11.796875 -28.179688 12.679688 -26.84375 12.640625 -24.65625 C 12.640625 -22.925781 12.144531 -21.425781 11.15625 -20.15625 C 10.164062 -18.894531 8.859375 -18.109375 7.234375 -17.796875 C 7.679688 -16.992188 8.3125 -16.5 9.125 -16.3125 C 9.945312 -16.125 10.929688 -16.082031 12.078125 -16.1875 C 13.359375 -16.320312 14.34375 -16.632812 15.03125 -17.125 C 16.84375 -18.40625 18.054688 -19.425781 18.671875 -20.1875 Z M 9 -25.28125 C 8 -24.90625 7.289062 -24.171875 6.875 -23.078125 C 6.457031 -21.984375 6.351562 -20.847656 6.5625 -19.671875 C 8.050781 -20.148438 9.125 -21.015625 9.78125 -22.265625 C 10.226562 -23.066406 10.398438 -23.863281 10.296875 -24.65625 C 10.265625 -25.113281 10.144531 -25.382812 9.9375 -25.46875 C 9.726562 -25.550781 9.414062 -25.488281 9 -25.28125 Z M 9 -25.28125 "/></g></g></g><g fill="#1d6638" fill-opacity="1"><g transform="translate(197.971906, 54.261033)"><g/></g></g><g fill="#1d6638" fill-opacity="1"><g transform="translate(210.300674, 54.261033)"><g><path d="M 36.421875 -22.578125 C 37.078125 -22.441406 37.414062 -21.972656 37.4375 -21.171875 C 37.457031 -20.378906 37.117188 -19.929688 36.421875 -19.828125 C 35.453125 -19.679688 34.046875 -19.59375 32.203125 -19.5625 C 33.523438 -16.164062 33.703125 -12.523438 32.734375 -8.640625 C 32.273438 -6.691406 31.429688 -4.867188 30.203125 -3.171875 C 28.972656 -1.472656 27.523438 -0.101562 25.859375 0.9375 C 22.734375 2.914062 19.265625 3.59375 15.453125 2.96875 C 13.546875 2.65625 11.800781 1.890625 10.21875 0.671875 C 8.644531 -0.535156 7.320312 -2.039062 6.25 -3.84375 C 4.851562 -6.207031 3.878906 -8.828125 3.328125 -11.703125 C 2.773438 -14.585938 2.609375 -17.425781 2.828125 -20.21875 C 3.054688 -23.007812 3.601562 -25.757812 4.46875 -28.46875 C 5.925781 -33.039062 7.835938 -36.628906 10.203125 -39.234375 C 12.972656 -42.253906 16.597656 -43.882812 21.078125 -44.125 C 21.972656 -44.195312 22.851562 -44.1875 23.71875 -44.09375 C 24.59375 -44.007812 25.476562 -43.84375 26.375 -43.59375 C 27.28125 -43.351562 28.113281 -42.972656 28.875 -42.453125 C 29.632812 -41.929688 30.242188 -41.304688 30.703125 -40.578125 C 31.535156 -39.367188 31.773438 -38.015625 31.421875 -36.515625 C 31.078125 -35.023438 30.210938 -34.003906 28.828125 -33.453125 C 28.203125 -33.179688 27.738281 -33.398438 27.4375 -34.109375 C 27.144531 -34.816406 27.3125 -35.3125 27.9375 -35.59375 C 28.457031 -35.832031 28.800781 -36.226562 28.96875 -36.78125 C 29.144531 -37.34375 29.128906 -37.882812 28.921875 -38.40625 C 28.753906 -39.019531 28.347656 -39.5 27.703125 -39.84375 C 27.066406 -40.195312 26.398438 -40.390625 25.703125 -40.421875 C 22.472656 -40.597656 19.488281 -39.628906 16.75 -37.515625 C 14.769531 -36.023438 13.125 -33.679688 11.8125 -30.484375 C 10.632812 -27.742188 9.816406 -24.78125 9.359375 -21.59375 C 8.910156 -18.539062 8.976562 -15.488281 9.5625 -12.4375 C 10.15625 -9.382812 11.375 -6.921875 13.21875 -5.046875 C 13.5625 -4.660156 13.875 -4.363281 14.15625 -4.15625 C 14.15625 -4.125 14.328125 -4.003906 14.671875 -3.796875 C 14.742188 -3.722656 15.003906 -3.582031 15.453125 -3.375 C 15.554688 -3.3125 15.625 -3.28125 15.65625 -3.28125 C 15.695312 -3.238281 15.769531 -3.203125 15.875 -3.171875 C 16.457031 -2.992188 17.046875 -2.835938 17.640625 -2.703125 C 17.742188 -2.671875 17.8125 -2.65625 17.84375 -2.65625 C 17.914062 -2.65625 18.003906 -2.65625 18.109375 -2.65625 C 18.691406 -2.625 19.003906 -2.609375 19.046875 -2.609375 C 20.148438 -2.609375 21.328125 -2.832031 22.578125 -3.28125 C 23.546875 -3.59375 24.445312 -4.078125 25.28125 -4.734375 C 27.050781 -6.117188 28.367188 -8.320312 29.234375 -11.34375 C 29.859375 -13.664062 29.910156 -16.351562 29.390625 -19.40625 C 28.804688 -19.375 27.773438 -19.285156 26.296875 -19.140625 C 24.828125 -19.003906 23.691406 -18.921875 22.890625 -18.890625 C 22.304688 -18.890625 21.863281 -19.125 21.5625 -19.59375 C 21.269531 -20.0625 21.203125 -20.5625 21.359375 -21.09375 C 21.515625 -21.632812 21.867188 -21.957031 22.421875 -22.0625 C 24.160156 -22.375 26.503906 -22.597656 29.453125 -22.734375 C 32.710938 -22.878906 35.035156 -22.828125 36.421875 -22.578125 Z M 36.421875 -22.578125 "/></g></g></g><g fill="#1d6638" fill-opacity="1"><g transform="translate(247.495039, 54.261033)"><g><path d="M 22.265625 -20.234375 C 22.617188 -20.546875 23.035156 -20.582031 23.515625 -20.34375 C 24.003906 -20.101562 24.160156 -19.738281 23.984375 -19.25 C 23.773438 -18.625 23.476562 -17.960938 23.09375 -17.265625 C 22.71875 -16.578125 22.273438 -15.875 21.765625 -15.15625 C 21.265625 -14.445312 20.703125 -13.832031 20.078125 -13.3125 C 19.453125 -12.800781 18.8125 -12.390625 18.15625 -12.078125 C 17.5 -11.765625 16.796875 -11.660156 16.046875 -11.765625 C 15.304688 -11.867188 14.601562 -12.210938 13.9375 -12.796875 C 13.320312 -13.347656 12.835938 -14.0625 12.484375 -14.9375 C 11.203125 -13.65625 9.710938 -12.960938 8.015625 -12.859375 C 6.523438 -12.753906 5.207031 -13.097656 4.0625 -13.890625 C 2.914062 -14.691406 2.097656 -15.707031 1.609375 -16.9375 C 1.128906 -18.164062 0.894531 -19.507812 0.90625 -20.96875 C 0.925781 -22.425781 1.265625 -23.742188 1.921875 -24.921875 C 2.546875 -26.140625 3.460938 -27.117188 4.671875 -27.859375 C 5.890625 -28.609375 7.175781 -28.960938 8.53125 -28.921875 C 10.820312 -28.921875 12.660156 -28.09375 14.046875 -26.4375 C 14.148438 -26.675781 14.320312 -27.046875 14.5625 -27.546875 C 14.8125 -28.054688 14.988281 -28.414062 15.09375 -28.625 C 15.332031 -29.175781 15.769531 -29.3125 16.40625 -29.03125 C 17.050781 -28.757812 17.269531 -28.328125 17.0625 -27.734375 C 16.375 -25.546875 15.835938 -23.460938 15.453125 -21.484375 C 14.898438 -18.785156 15.019531 -16.828125 15.8125 -15.609375 C 16.0625 -15.222656 16.359375 -14.988281 16.703125 -14.90625 C 17.046875 -14.820312 17.390625 -14.882812 17.734375 -15.09375 C 18.085938 -15.300781 18.4375 -15.566406 18.78125 -15.890625 C 19.125 -16.222656 19.476562 -16.625 19.84375 -17.09375 C 20.207031 -17.5625 20.53125 -17.992188 20.8125 -18.390625 C 21.09375 -18.785156 21.367188 -19.15625 21.640625 -19.5 C 21.921875 -19.851562 22.128906 -20.097656 22.265625 -20.234375 Z M 7.28125 -17.375 C 7.5625 -17.238281 7.847656 -17.171875 8.140625 -17.171875 C 8.429688 -17.171875 8.695312 -17.203125 8.9375 -17.265625 C 9.1875 -17.335938 9.429688 -17.453125 9.671875 -17.609375 C 9.921875 -17.765625 10.140625 -17.925781 10.328125 -18.09375 C 10.515625 -18.269531 10.722656 -18.488281 10.953125 -18.75 C 11.179688 -19.007812 11.363281 -19.234375 11.5 -19.421875 C 11.632812 -19.617188 11.789062 -19.859375 11.96875 -20.140625 C 12 -20.347656 12.035156 -20.535156 12.078125 -20.703125 C 12.242188 -21.710938 12.535156 -22.789062 12.953125 -23.9375 C 11.015625 -25.53125 9.300781 -25.894531 7.8125 -25.03125 C 7.039062 -24.570312 6.46875 -23.910156 6.09375 -23.046875 C 5.78125 -22.421875 5.601562 -21.726562 5.5625 -20.96875 C 5.5625 -20.6875 5.5625 -20.425781 5.5625 -20.1875 C 5.5625 -20.050781 5.5625 -19.984375 5.5625 -19.984375 C 5.601562 -19.941406 5.625 -19.867188 5.625 -19.765625 C 5.65625 -19.597656 5.707031 -19.390625 5.78125 -19.140625 C 5.84375 -18.972656 5.894531 -18.851562 5.9375 -18.78125 C 6.28125 -18.09375 6.726562 -17.625 7.28125 -17.375 Z M 7.28125 -17.375 "/></g></g></g><g fill="#1d6638" fill-opacity="1"><g transform="translate(266.222284, 54.261033)"><g><path d="M 10.671875 -28.875 C 12.085938 -29.050781 13.289062 -28.644531 14.28125 -27.65625 C 15.269531 -26.664062 15.710938 -25.457031 15.609375 -24.03125 C 15.472656 -22.375 14.832031 -21.210938 13.6875 -20.546875 C 12.925781 -20.066406 12.132812 -19.957031 11.3125 -20.21875 C 10.5 -20.476562 9.972656 -21.023438 9.734375 -21.859375 C 9.523438 -22.585938 9.738281 -23.101562 10.375 -23.40625 C 11.019531 -23.71875 11.585938 -23.632812 12.078125 -23.15625 C 12.285156 -23.257812 12.40625 -23.347656 12.4375 -23.421875 C 12.644531 -23.585938 12.785156 -23.863281 12.859375 -24.25 C 12.992188 -24.9375 12.800781 -25.472656 12.28125 -25.859375 C 11.65625 -26.140625 11.046875 -26.175781 10.453125 -25.96875 C 9.867188 -25.757812 9.332031 -25.425781 8.84375 -24.96875 C 8.007812 -24.175781 7.488281 -22.894531 7.28125 -21.125 C 7.28125 -20.914062 7.28125 -20.773438 7.28125 -20.703125 C 7.382812 -19.597656 7.457031 -18.070312 7.5 -16.125 C 7.5625 -15.46875 7.566406 -14.671875 7.515625 -13.734375 C 7.460938 -12.796875 7.300781 -12.035156 7.03125 -11.453125 C 6.71875 -10.929688 6.28125 -10.6875 5.71875 -10.71875 C 5.164062 -10.75 4.734375 -11.007812 4.421875 -11.5 C 4.390625 -11.5 4.375 -11.484375 4.375 -11.453125 C 4.195312 -11.722656 4.046875 -12.066406 3.921875 -12.484375 C 3.804688 -12.898438 3.726562 -13.21875 3.6875 -13.4375 C 3.65625 -13.664062 3.617188 -14.082031 3.578125 -14.6875 C 3.546875 -15.300781 3.53125 -15.644531 3.53125 -15.71875 C 3.5 -16.269531 3.429688 -17.054688 3.328125 -18.078125 C 3.222656 -19.097656 3.171875 -19.710938 3.171875 -19.921875 C 2.929688 -22.523438 2.601562 -25.25 2.1875 -28.09375 C 2.113281 -28.71875 2.328125 -29.203125 2.828125 -29.546875 C 3.335938 -29.898438 3.832031 -29.832031 4.3125 -29.34375 C 5.113281 -28.550781 5.757812 -27.492188 6.25 -26.171875 C 7.425781 -27.734375 8.898438 -28.632812 10.671875 -28.875 Z M 12.125 -23.15625 C 12.195312 -23.082031 12.25 -23.015625 12.28125 -22.953125 C 12.207031 -23.015625 12.15625 -23.082031 12.125 -23.15625 Z M 12.125 -23.15625 "/></g></g></g><g fill="#1d6638" fill-opacity="1"><g transform="translate(281.828319, 54.261033)"><g><path d="M 24.140625 -20.453125 C 24.484375 -21.035156 25.046875 -21.238281 25.828125 -21.0625 C 26.609375 -20.894531 26.96875 -20.445312 26.90625 -19.71875 C 26.519531 -16.800781 25.21875 -14.613281 23 -13.15625 C 21.988281 -12.539062 20.894531 -12.210938 19.71875 -12.171875 C 18.539062 -12.140625 17.429688 -12.421875 16.390625 -13.015625 C 15.484375 -13.523438 14.703125 -14.269531 14.046875 -15.25 C 12.421875 -13.582031 10.546875 -12.75 8.421875 -12.75 C 7.421875 -12.71875 6.476562 -12.925781 5.59375 -13.375 C 4.707031 -13.820312 3.96875 -14.410156 3.375 -15.140625 C 2.789062 -15.867188 2.316406 -16.703125 1.953125 -17.640625 C 1.585938 -18.578125 1.390625 -19.53125 1.359375 -20.5 C 1.285156 -22.34375 1.703125 -24.0625 2.609375 -25.65625 C 3.429688 -27.175781 4.675781 -28.234375 6.34375 -28.828125 C 8.1875 -29.515625 9.710938 -29.738281 10.921875 -29.5 C 10.890625 -33.144531 11.289062 -36.648438 12.125 -40.015625 C 12.300781 -40.640625 12.679688 -41.679688 13.265625 -43.140625 C 13.609375 -44.003906 14.078125 -44.625 14.671875 -45 C 15.265625 -45.351562 15.835938 -45.457031 16.390625 -45.3125 C 16.941406 -45.175781 17.410156 -44.847656 17.796875 -44.328125 C 18.347656 -43.566406 18.816406 -42.390625 19.203125 -40.796875 C 19.546875 -39.203125 19.769531 -37.15625 19.875 -34.65625 C 20.082031 -30.351562 19.300781 -25.828125 17.53125 -21.078125 C 17.363281 -20.660156 17.191406 -20.257812 17.015625 -19.875 C 17.503906 -18.351562 18.09375 -17.347656 18.78125 -16.859375 C 19.125 -16.617188 19.476562 -16.488281 19.84375 -16.46875 C 20.207031 -16.445312 20.570312 -16.550781 20.9375 -16.78125 C 21.300781 -17.007812 21.625 -17.242188 21.90625 -17.484375 C 22.1875 -17.722656 22.488281 -18.066406 22.8125 -18.515625 C 23.144531 -18.972656 23.390625 -19.3125 23.546875 -19.53125 C 23.703125 -19.757812 23.898438 -20.066406 24.140625 -20.453125 Z M 15.875 -43.296875 C 15.59375 -43.328125 15.347656 -42.984375 15.140625 -42.265625 C 14.929688 -41.554688 14.78125 -40.65625 14.6875 -39.5625 C 14.601562 -38.476562 14.550781 -37.5625 14.53125 -36.8125 C 14.519531 -36.0625 14.515625 -35.476562 14.515625 -35.0625 C 14.515625 -32.257812 14.863281 -29.15625 15.5625 -25.75 C 15.625 -26 15.675781 -26.242188 15.71875 -26.484375 C 16.71875 -30.234375 17.1875 -33.894531 17.125 -37.46875 C 17.125 -39.09375 17.019531 -40.285156 16.8125 -41.046875 C 16.5 -42.472656 16.1875 -43.222656 15.875 -43.296875 Z M 11.8125 -18.625 C 11.988281 -18.757812 12.160156 -18.929688 12.328125 -19.140625 C 12.328125 -19.179688 12.3125 -19.203125 12.28125 -19.203125 C 11.726562 -21.210938 11.328125 -23.535156 11.078125 -26.171875 C 10.703125 -26.242188 10.304688 -26.28125 9.890625 -26.28125 C 8.878906 -26.207031 8.03125 -25.6875 7.34375 -24.71875 C 7.0625 -24.332031 6.851562 -23.878906 6.71875 -23.359375 L 6.65625 -23.109375 C 6.625 -23.066406 6.609375 -23.007812 6.609375 -22.9375 C 6.609375 -22.875 6.597656 -22.820312 6.578125 -22.78125 C 6.566406 -22.75 6.5625 -22.695312 6.5625 -22.625 C 6.5625 -22.5625 6.5625 -22.492188 6.5625 -22.421875 C 6.519531 -22.210938 6.5 -22.109375 6.5 -22.109375 L 6.453125 -21.953125 C 6.421875 -21.191406 6.4375 -20.585938 6.5 -20.140625 C 6.539062 -19.992188 6.613281 -19.765625 6.71875 -19.453125 C 6.75 -19.347656 6.78125 -19.226562 6.8125 -19.09375 C 6.851562 -19.09375 6.875 -19.078125 6.875 -19.046875 C 7.007812 -18.765625 7.128906 -18.535156 7.234375 -18.359375 C 7.265625 -18.359375 7.304688 -18.332031 7.359375 -18.28125 C 7.410156 -18.238281 7.472656 -18.171875 7.546875 -18.078125 C 7.617188 -17.992188 7.660156 -17.953125 7.671875 -17.953125 C 7.691406 -17.953125 7.703125 -17.9375 7.703125 -17.90625 C 7.804688 -17.832031 7.890625 -17.78125 7.953125 -17.75 C 8.203125 -17.644531 8.394531 -17.570312 8.53125 -17.53125 C 9.675781 -17.289062 10.769531 -17.65625 11.8125 -18.625 Z M 11.8125 -18.625 "/></g></g></g><g fill="#1d6638" fill-opacity="1"><g transform="translate(303.41665, 54.261033)"><g><path d="M 18.671875 -20.1875 C 19.023438 -20.632812 19.476562 -20.691406 20.03125 -20.359375 C 20.582031 -20.035156 20.753906 -19.613281 20.546875 -19.09375 C 19.785156 -17.257812 18.625 -15.691406 17.0625 -14.390625 C 15.5 -13.085938 13.765625 -12.265625 11.859375 -11.921875 C 9.878906 -11.609375 8.285156 -11.660156 7.078125 -12.078125 C 5.203125 -12.796875 3.796875 -14.039062 2.859375 -15.8125 C 2.234375 -17.0625 1.859375 -18.414062 1.734375 -19.875 C 1.617188 -21.332031 1.8125 -22.769531 2.3125 -24.1875 C 2.8125 -25.613281 3.632812 -26.726562 4.78125 -27.53125 C 6.519531 -28.738281 8.253906 -29.117188 9.984375 -28.671875 C 11.796875 -28.179688 12.679688 -26.84375 12.640625 -24.65625 C 12.640625 -22.925781 12.144531 -21.425781 11.15625 -20.15625 C 10.164062 -18.894531 8.859375 -18.109375 7.234375 -17.796875 C 7.679688 -16.992188 8.3125 -16.5 9.125 -16.3125 C 9.945312 -16.125 10.929688 -16.082031 12.078125 -16.1875 C 13.359375 -16.320312 14.34375 -16.632812 15.03125 -17.125 C 16.84375 -18.40625 18.054688 -19.425781 18.671875 -20.1875 Z M 9 -25.28125 C 8 -24.90625 7.289062 -24.171875 6.875 -23.078125 C 6.457031 -21.984375 6.351562 -20.847656 6.5625 -19.671875 C 8.050781 -20.148438 9.125 -21.015625 9.78125 -22.265625 C 10.226562 -23.066406 10.398438 -23.863281 10.296875 -24.65625 C 10.265625 -25.113281 10.144531 -25.382812 9.9375 -25.46875 C 9.726562 -25.550781 9.414062 -25.488281 9 -25.28125 Z M 9 -25.28125 "/></g></g></g><g fill="#1d6638" fill-opacity="1"><g transform="translate(319.022655, 54.261033)"><g><path d="M 22.953125 -19.765625 C 23.265625 -20.148438 23.675781 -20.191406 24.1875 -19.890625 C 24.707031 -19.597656 24.882812 -19.210938 24.71875 -18.734375 C 24.300781 -17.691406 23.992188 -16.960938 23.796875 -16.546875 C 23.609375 -16.128906 23.289062 -15.507812 22.84375 -14.6875 C 22.394531 -13.875 21.910156 -13.207031 21.390625 -12.6875 C 20.867188 -12.175781 20.273438 -11.765625 19.609375 -11.453125 C 18.054688 -10.722656 16.550781 -10.726562 15.09375 -11.46875 C 13.632812 -12.21875 12.765625 -13.441406 12.484375 -15.140625 C 12.421875 -15.523438 12.367188 -15.953125 12.328125 -16.421875 C 12.296875 -16.890625 12.285156 -17.28125 12.296875 -17.59375 C 12.316406 -17.90625 12.335938 -18.335938 12.359375 -18.890625 C 12.378906 -19.441406 12.390625 -19.835938 12.390625 -20.078125 C 12.453125 -20.703125 12.457031 -21.472656 12.40625 -22.390625 C 12.351562 -23.316406 12.171875 -24.070312 11.859375 -24.65625 C 11.585938 -25.144531 11.25 -25.457031 10.84375 -25.59375 C 10.445312 -25.738281 10.039062 -25.734375 9.625 -25.578125 C 9.207031 -25.421875 8.804688 -25.132812 8.421875 -24.71875 C 7.523438 -23.882812 6.9375 -22.929688 6.65625 -21.859375 C 6.726562 -20.984375 6.765625 -20.410156 6.765625 -20.140625 C 6.796875 -19.648438 6.847656 -19.03125 6.921875 -18.28125 C 6.992188 -17.539062 7.054688 -16.898438 7.109375 -16.359375 C 7.160156 -15.828125 7.203125 -15.210938 7.234375 -14.515625 C 7.265625 -13.816406 7.265625 -13.191406 7.234375 -12.640625 C 7.203125 -11.953125 6.914062 -11.429688 6.375 -11.078125 C 5.832031 -10.734375 5.257812 -10.65625 4.65625 -10.84375 C 4.050781 -11.039062 3.660156 -11.46875 3.484375 -12.125 C 3.066406 -13.644531 2.789062 -16.242188 2.65625 -19.921875 C 2.519531 -23.285156 2.675781 -25.851562 3.125 -27.625 C 3.257812 -28.320312 3.722656 -28.671875 4.515625 -28.671875 C 5.316406 -28.671875 5.804688 -28.320312 5.984375 -27.625 C 6.054688 -27.207031 6.144531 -26.722656 6.25 -26.171875 C 7.039062 -27.003906 7.890625 -27.613281 8.796875 -28 C 10.359375 -28.613281 11.796875 -28.519531 13.109375 -27.71875 C 14.429688 -26.925781 15.367188 -25.734375 15.921875 -24.140625 C 16.335938 -22.929688 16.546875 -21.179688 16.546875 -18.890625 C 16.546875 -18.816406 16.523438 -18.535156 16.484375 -18.046875 C 16.453125 -17.566406 16.4375 -17.160156 16.4375 -16.828125 C 16.4375 -16.503906 16.488281 -16.160156 16.59375 -15.796875 C 16.695312 -15.429688 16.851562 -15.175781 17.0625 -15.03125 C 17.757812 -14.507812 18.785156 -14.910156 20.140625 -16.234375 C 20.347656 -16.441406 20.554688 -16.65625 20.765625 -16.875 C 20.972656 -17.101562 21.160156 -17.335938 21.328125 -17.578125 C 21.503906 -17.828125 21.675781 -18.0625 21.84375 -18.28125 C 22.019531 -18.507812 22.210938 -18.757812 22.421875 -19.03125 C 22.628906 -19.3125 22.804688 -19.554688 22.953125 -19.765625 Z M 22.953125 -19.765625 "/></g></g></g></svg>